<?xml version="1.0" encoding="utf-8"?>
<!-- Generator: Adobe Illustrator 22.1.0, SVG Export Plug-In . SVG Version: 6.00 Build 0)  -->
<svg version="1.1" id="Layer_1" xmlns="http://www.w3.org/2000/svg" xmlns:xlink="http://www.w3.org/1999/xlink" x="0px" y="0px"
	 viewBox="0 0 200 103.359" style="enable-background:new 0 0 200 103.359;" xml:space="preserve">
<style type="text/css">
	.st0{fill:#231F20;}
</style>
<g>
	<path class="st0" d="M181.109,18.891v11.26v33.471v0.001c0,11.388-9.303,20.687-20.78,20.687c-8.005,0-14.948-4.527-18.419-11.129
		c-1.602,6.945-4.909,13.25-9.459,18.453c7.17,7.053,17.021,11.421,27.879,11.421c21.874,0,39.67-17.726,39.67-39.433V0
		C189.567,0,181.109,8.458,181.109,18.891z"/>
	<path class="st0" d="M139.55,63.622c0-1.126,0.094-2.23,0.27-3.306c1.595-9.805,10.169-17.248,20.51-17.248
		c1.125,0,2.229,0.091,3.306,0.261c5.941,0.936,11.037,4.356,14.168,9.16V28.34c-4.338-2.115-9.12-3.467-14.168-3.881
		c-1.09-0.089-2.192-0.137-3.306-0.137c-20.752,0-37.891,15.835-39.588,35.994c-0.092,1.09,0,2.192,0,3.306
		c0,0.644,0.058,1.28,0,1.909c-0.253,2.737-1.08,5.321-2.303,7.649c-3.471,6.602-10.414,11.129-18.419,11.129
		c-11.476,0-20.723-9.265-20.723-20.654v-0.271V42.909c0-10.433-8.458-18.891-18.891-18.891v39.366v0.271v0.033
		c0,11.476-9.265,20.78-20.742,20.78s-20.78-9.303-20.78-20.78v-20.78c0-10.433-8.451-18.891-18.884-18.891v39.671
		c0,21.874,17.789,39.67,39.664,39.67c12.13,0,23.002-5.475,30.285-14.08c7.266,8.425,18.042,13.775,30.07,13.775
		c10.857,0,20.708-4.368,27.879-11.421c0.793-0.78,1.552-1.592,2.277-2.435c5.539-6.443,8.941-14.669,9.376-23.667
		C139.58,64.898,139.55,64.262,139.55,63.622z"/>
</g>
</svg>
